<?xml version="1.0" encoding="UTF-8" standalone="no"?>
<svg xmlns:dc="http://purl.org/dc/elements/1.1/" xmlns:cc="http://creativecommons.org/ns#" xmlns:rdf="http://www.w3.org/1999/02/22-rdf-syntax-ns#" xmlns:svg="http://www.w3.org/2000/svg" xmlns="http://www.w3.org/2000/svg" xmlns:sodipodi="http://sodipodi.sourceforge.net/DTD/sodipodi-0.dtd" xmlns:inkscape="http://www.inkscape.org/namespaces/inkscape" width="976.309" height="846.778" viewBox="0 0 258.315 224.043" version="1.1" id="svg16" sodipodi:docname="nixcon2018_simple_centered_separate_arrows.svg" inkscape:version="0.92.3 (2405546, 2018-03-11)"><div xmlns="" id="saka-gui-root"><div><div><style/></div></div></div>
  <metadata id="metadata22">
    <rdf:RDF>
      <cc:Work rdf:about="">
        <dc:format>image/svg+xml</dc:format>
        <dc:type rdf:resource="http://purl.org/dc/dcmitype/StillImage"/>
      </cc:Work>
    </rdf:RDF>
  </metadata>
  <defs id="defs20"/>
  <sodipodi:namedview pagecolor="#ffffff" bordercolor="#666666" borderopacity="1" objecttolerance="10" gridtolerance="10" guidetolerance="10" inkscape:pageopacity="0" inkscape:pageshadow="2" inkscape:window-width="2300" inkscape:window-height="1393" id="namedview18" showgrid="false" inkscape:zoom="1.5765851" inkscape:cx="276.61446" inkscape:cy="424.71447" inkscape:window-x="256" inkscape:window-y="45" inkscape:window-maximized="0" inkscape:current-layer="svg16"/>
  <path d="M101.518 69.893l-62.927 108.98L23.9 153.97l16.959-29.187-33.68-.089L0 112.25 7.33 99.52l47.941.152 17.23-29.704zM179.591 109.258L116.675.27 145.589 0l16.797 29.28L179.303.157l14.366.006 7.358 12.712-24.101 41.443 17.109 29.773z" style="isolation:auto;mix-blend-mode:normal" overflow="visible" id="path2" fill-rule="evenodd" fill="#7ebae4" color="#000"/>
  <path style="isolation:auto;mix-blend-mode:normal" d="M151.887 66.758l-125.843-.006 14.222-25.176 33.756.093L57.26 12.457 64.447.018 79.135.002l23.84 41.594 34.338.07z" overflow="visible" id="path4" fill-rule="evenodd" fill="#5277c3" color="#000"/>
  <path d="M121.708 41.859h15.605v18.328h-15.605zM110.743 70.01h34.125v18.328h-34.125zM110.315 129.079h34.125v18.328h-34.125zM107.292 91.282h46.22v37.675h-46.22z" id="path6" fill="#fff"/>
  <path style="fill:#4d4d4d;stroke-width:3.77952886" d="m 488.15625,364.46094 a 9.8116574,9.8116574 0 0 0 -0.8457,0.043 9.8116572,9.8116572 0 0 0 -0.50196,0.0605 9.8116574,9.8116574 0 0 0 -0.45312,0.0684 9.8116572,9.8116572 0 0 0 -0.52149,0.11719 9.8116574,9.8116574 0 0 0 -0.4375,0.11133 9.8116572,9.8116572 0 0 0 -0.49609,0.16406 9.8116574,9.8116574 0 0 0 -0.43164,0.1582 9.8116572,9.8116572 0 0 0 -0.45703,0.20508 9.8116574,9.8116574 0 0 0 -0.43945,0.21094 9.8116572,9.8116572 0 0 0 -0.40039,0.23047 9.8116574,9.8116574 0 0 0 -0.45899,0.28125 9.8116572,9.8116572 0 0 0 -0.33984,0.24414 9.8116574,9.8116574 0 0 0 -0.44336,0.33594 9.8116572,9.8116572 0 0 0 -0.32227,0.2832 9.8116574,9.8116574 0 0 0 -0.40625,0.37695 9.8116572,9.8116572 0 0 0 -0.28515,0.3086 9.8116574,9.8116574 0 0 0 -0.37305,0.42382 9.8116572,9.8116572 0 0 0 -0.25977,0.3418 9.8116574,9.8116574 0 0 0 -0.30664,0.42774 9.8116572,9.8116572 0 0 0 -0.2539,0.41406 9.8116574,9.8116574 0 0 0 -0.25,0.43554 9.8116572,9.8116572 0 0 0 -0.20313,0.42188 9.8116574,9.8116574 0 0 0 -0.20898,0.4707 9.8116572,9.8116572 0 0 0 -0.1543,0.42188 9.8116574,9.8116574 0 0 0 -0.16797,0.5039 9.8116572,9.8116572 0 0 0 -0.11133,0.43555 9.8116574,9.8116574 0 0 0 -0.11914,0.52539 9.8116572,9.8116572 0 0 0 -0.0605,0.41016 9.8116574,9.8116574 0 0 0 -0.0703,0.5664 9.8116572,9.8116572 0 0 0 -0.0391,0.82032 v 45.21093 a 9.8154369,9.8154369 0 0 0 0.0352,0.70508 9.8154367,9.8154367 0 0 0 0.043,0.47266 9.8154369,9.8154369 0 0 0 0.0762,0.50391 9.8154367,9.8154367 0 0 0 0.0859,0.44726 9.8154369,9.8154369 0 0 0 0.13477,0.52539 9.8154367,9.8154367 0 0 0 0.12305,0.41211 9.8154369,9.8154369 0 0 0 0.18945,0.51953 9.8154367,9.8154367 0 0 0 0.16992,0.40821 9.8154369,9.8154369 0 0 0 0.2168,0.45312 9.8154367,9.8154367 0 0 0 0.23633,0.44141 9.8154369,9.8154369 0 0 0 0.24218,0.39648 9.8154367,9.8154367 0 0 0 0.28907,0.43164 9.8154369,9.8154369 0 0 0 0.28125,0.36914 9.8154367,9.8154367 0 0 0 0.32226,0.39063 9.8154369,9.8154369 0 0 0 0.33008,0.35351 9.8154367,9.8154367 0 0 0 0.36328,0.35742 9.8154369,9.8154369 0 0 0 0.33594,0.29688 9.8154367,9.8154367 0 0 0 0.56055,0.45312 l 21.60156,15.72266 c 1.74614,1.26614 3.76638,1.87891 5.76953,1.87891 a 9.8116574,9.8116574 0 0 0 0.53125,-0.0254 9.8116572,9.8116572 0 0 0 0.53516,-0.0352 9.8116574,9.8116574 0 0 0 0.41601,-0.0605 9.8116572,9.8116572 0 0 0 0.56641,-0.0937 9.8116574,9.8116574 0 0 0 0.36328,-0.0918 9.8116572,9.8116572 0 0 0 0.58203,-0.15625 9.8116574,9.8116574 0 0 0 0.40039,-0.14649 9.8116572,9.8116572 0 0 0 0.50195,-0.18945 9.8116574,9.8116574 0 0 0 0.41993,-0.20117 9.8116572,9.8116572 0 0 0 0.4707,-0.23633 9.8116574,9.8116574 0 0 0 0.36328,-0.2207 9.8116572,9.8116572 0 0 0 0.4668,-0.29493 9.8116574,9.8116574 0 0 0 0.30664,-0.23046 9.8116572,9.8116572 0 0 0 0.49219,-0.38672 9.8116574,9.8116574 0 0 0 0.22265,-0.20704 9.8116572,9.8116572 0 0 0 0.47071,-0.44921 9.8116574,9.8116574 0 0 0 0.25586,-0.28907 9.8116572,9.8116572 0 0 0 0.39648,-0.46484 9.8116574,9.8116574 0 0 0 0.19726,-0.27344 9.8116572,9.8116572 0 0 0 0.35938,-0.51562 9.8116574,9.8116574 0 0 0 0.19727,-0.34375 9.8116572,9.8116572 0 0 0 0.28906,-0.51953 9.8116574,9.8116574 0 0 0 0.13672,-0.30664 9.8116572,9.8116572 0 0 0 0.25781,-0.59375 9.8116574,9.8116574 0 0 0 0.10156,-0.30469 9.8116572,9.8116572 0 0 0 0.20117,-0.62891 9.8116574,9.8116574 0 0 0 0.0742,-0.33594 9.8116572,9.8116572 0 0 0 0.12891,-0.61523 9.8116574,9.8116574 0 0 0 0.0469,-0.37695 9.8116572,9.8116572 0 0 0 0.0645,-0.5918 9.8116574,9.8116574 0 0 0 0.01,-0.39258 9.8116572,9.8116572 0 0 0 0.004,-0.59765 9.8116574,9.8116574 0 0 0 -0.0273,-0.35547 9.8116572,9.8116572 0 0 0 -0.0566,-0.61328 9.8116574,9.8116574 0 0 0 -0.0664,-0.37696 9.8116572,9.8116572 0 0 0 -0.11719,-0.5957 9.8116574,9.8116574 0 0 0 -0.0937,-0.32617 9.8116572,9.8116572 0 0 0 -0.18555,-0.61524 9.8116574,9.8116574 0 0 0 -0.11914,-0.30078 9.8116572,9.8116572 0 0 0 -0.25,-0.60547 9.8116574,9.8116574 0 0 0 -0.15429,-0.29883 9.8116572,9.8116572 0 0 0 -0.30274,-0.56445 9.8116574,9.8116574 0 0 0 -0.21679,-0.33203 9.8116572,9.8116572 0 0 0 -0.31641,-0.4707 9.8116574,9.8116574 0 0 0 -0.26953,-0.33789 9.8116572,9.8116572 0 0 0 -0.35742,-0.42969 9.8116574,9.8116574 0 0 0 -0.29493,-0.30078 9.8116572,9.8116572 0 0 0 -0.38867,-0.38086 9.8116574,9.8116574 0 0 0 -0.37304,-0.3125 9.8116572,9.8116572 0 0 0 -0.44922,-0.36133 l -17.5625,-12.78906 V 374.2793 a 9.8116574,9.8116574 0 0 0 -0.041,-0.83789 9.8116572,9.8116572 0 0 0 -0.0645,-0.52735 9.8116574,9.8116574 0 0 0 -0.0645,-0.42383 9.8116572,9.8116572 0 0 0 -0.125,-0.5625 9.8116574,9.8116574 0 0 0 -0.10156,-0.39257 9.8116572,9.8116572 0 0 0 -0.18359,-0.55469 9.8116574,9.8116574 0 0 0 -0.13477,-0.36719 9.8116572,9.8116572 0 0 0 -0.23633,-0.5293 9.8116574,9.8116574 0 0 0 -0.17773,-0.36718 9.8116572,9.8116572 0 0 0 -0.27344,-0.47852 9.8116574,9.8116574 0 0 0 -0.22851,-0.37305 9.8116572,9.8116572 0 0 0 -0.30469,-0.42382 9.8116574,9.8116574 0 0 0 -0.28125,-0.3711 9.8116572,9.8116572 0 0 0 -0.3457,-0.39258 9.8116574,9.8116574 0 0 0 -0.30274,-0.32617 9.8116572,9.8116572 0 0 0 -0.38672,-0.35937 9.8116574,9.8116574 0 0 0 -0.35351,-0.31055 9.8116572,9.8116572 0 0 0 -0.38867,-0.29687 9.8116574,9.8116574 0 0 0 -0.39258,-0.28125 9.8116572,9.8116572 0 0 0 -0.43946,-0.26758 9.8116574,9.8116574 0 0 0 -0.40625,-0.23438 9.8116572,9.8116572 0 0 0 -0.46289,-0.22265 9.8116574,9.8116574 0 0 0 -0.42382,-0.18946 9.8116572,9.8116572 0 0 0 -0.47657,-0.17383 9.8116574,9.8116574 0 0 0 -0.44531,-0.14843 9.8116572,9.8116572 0 0 0 -0.50391,-0.12891 9.8116574,9.8116574 0 0 0 -0.45507,-0.10156 9.8116572,9.8116572 0 0 0 -0.48243,-0.0742 9.8116574,9.8116574 0 0 0 -0.49414,-0.0605 9.8116572,9.8116572 0 0 0 -0.83984,-0.041 z" id="path957" transform="matrix(0.26458324,0,0,0.26458324,0,-1.3366107e-4)" inkscape:connector-curvature="0" inkscape:transform-center-x="-2.5810069" inkscape:transform-center-y="-4.1830112"/>
  <path style="fill:#4d4d4d;stroke-width:3.77952886" d="M 488.21289 69.998047 C 486.64817 69.998047 485.22014 70.783975 484.5625 72.205078 L 442.04297 161.89258 C 440.08895 166.01604 439.07227 170.5398 439.07227 175.10547 L 439.07227 207.43555 L 403.06445 279.45117 C 400.91768 283.74472 399.80273 288.46146 399.80273 293.25391 L 399.80273 325.23633 A 19.627094 19.627094 0 0 0 380.17188 344.86719 L 380.17188 474.17188 C 380.17187 479.36495 381.90619 484.74369 385.92383 488.05078 L 399.80664 499.48828 L 399.80664 845.71094 L 576.50586 845.71094 L 576.50586 499.48828 L 590.38477 485.60938 A 19.585519 19.585519 0 0 0 596.13672 471.72656 L 596.13672 342.42188 L 596.13672 342.41797 C 596.13672 331.56694 587.34555 325.23242 576.50586 325.23242 L 576.50586 293.25 A 30.837177 30.837177 0 0 0 573.24805 279.44727 L 537.24023 207.43164 L 537.24023 175.10547 A 30.924106 30.924106 0 0 0 534.27734 161.89258 L 491.86328 72.201172 C 491.20186 70.783849 489.77762 69.998047 488.21289 69.998047 z M 473.42773 168.16602 C 476.14522 168.16602 478.33789 170.35504 478.33789 173.08008 L 478.33789 206.07617 C 478.33789 206.82074 477.73247 207.43555 476.97656 207.43555 L 469.88281 207.43555 C 469.12691 207.43555 468.52148 206.82074 468.52148 206.07617 L 468.52148 173.08008 C 468.52148 170.35504 470.71781 168.16602 473.42773 168.16602 z M 502.87695 168.16602 C 505.59065 168.16602 507.78711 170.35504 507.78711 173.08008 L 507.78711 206.07617 C 507.78711 206.82074 507.18169 207.43555 506.42578 207.43555 L 499.33203 207.43555 C 498.57613 207.43555 497.97266 206.82074 497.97266 206.07617 L 497.96875 173.08008 C 497.96875 170.35504 500.16325 168.16602 502.87695 168.16602 z M 443.97656 285.96289 C 446.69404 285.96289 448.88672 288.15179 448.88672 290.87305 L 448.88672 323.875 C 448.88672 324.61957 448.28325 325.23633 447.52734 325.23633 L 440.43164 325.23633 C 439.67573 325.23633 439.07227 324.61957 439.07227 323.875 L 439.07227 290.87305 C 439.07227 288.15179 441.26664 285.96289 443.97656 285.96289 z M 488.15234 285.96289 C 490.86983 285.96289 493.0625 288.15179 493.0625 290.87305 L 493.0625 323.875 C 493.0625 324.61957 492.45708 325.23633 491.70117 325.23633 L 484.60742 325.23633 C 483.85152 325.23633 483.24609 324.61957 483.24609 323.875 L 483.24609 290.87305 C 483.24609 288.15179 485.44242 285.96289 488.15234 285.96289 z M 532.32812 285.96289 C 535.04183 285.96289 537.23828 288.15179 537.23828 290.87305 L 537.23828 323.875 C 537.23828 324.61957 536.63286 325.23633 535.87695 325.23633 L 528.7832 325.23633 C 528.0273 325.23633 527.42188 324.61957 527.42188 323.875 L 527.41797 290.87305 C 527.41797 288.15179 529.61442 285.96289 532.32812 285.96289 z M 488.15625 344.87109 C 526.1065 344.87109 556.87109 375.64129 556.87109 413.58398 C 556.87109 451.53046 526.11028 482.30273 488.15625 482.30273 C 450.20222 482.30273 419.4375 451.53046 419.4375 413.58398 C 419.4375 375.64129 450.20222 344.87109 488.15625 344.87109 z M 488.15625 364.46094 A 9.8116574 9.8116574 0 0 1 488.86133 364.48633 A 9.8116574 9.8116574 0 0 0 488.15625 364.46094 z M 443.98047 501.93359 C 446.69417 501.93359 448.88672 504.12249 448.88672 506.84375 L 448.88672 539.8418 C 448.88672 540.58636 448.28325 541.20312 447.52734 541.20312 L 440.43164 541.20312 C 439.67573 541.20312 439.07227 540.58636 439.07227 539.8418 L 439.07227 506.8457 C 439.07227 504.12066 441.26677 501.93359 443.98047 501.93359 z M 488.15625 501.93359 C 490.86995 501.93359 493.0625 504.12249 493.0625 506.84375 L 493.0625 539.8418 C 493.0625 540.58636 492.45708 541.20312 491.70117 541.20312 L 484.60742 541.20312 C 483.85152 541.20312 483.24609 540.58636 483.24609 539.8418 L 483.24609 506.8457 C 483.24609 504.12066 485.44255 501.93359 488.15625 501.93359 z M 532.33203 501.93359 C 535.04573 501.93359 537.23828 504.12249 537.23828 506.84375 L 537.23828 539.8418 C 537.23828 540.58636 536.63286 541.20312 535.87695 541.20312 L 528.7832 541.20312 C 528.0273 541.20312 527.42188 540.58636 527.42188 539.8418 L 527.42188 506.8457 C 527.42188 504.12066 529.61833 501.93359 532.33203 501.93359 z " id="path8" transform="matrix(0.26458324,0,0,0.26458324,0,-1.3366107e-4)"/>
  <path style="isolation:auto;mix-blend-mode:normal" d="M156.797 154.127l62.927-108.98 14.691 24.904-16.959 29.187 33.681.089 7.178 12.444-7.33 12.729-47.94-.152-17.23 29.704z" overflow="visible" id="path10" fill-rule="evenodd" fill="#5277c3" color="#000"/>
  <path d="M106.346 157.01l125.843.005-14.222 25.176-33.756-.093 16.763 29.212-7.188 12.439-14.688.015-23.84-41.594-34.338-.07z" style="isolation:auto;mix-blend-mode:normal" overflow="visible" id="path12" fill-rule="evenodd" fill="#7ebae4" color="#000"/>
  <path style="isolation:auto;mix-blend-mode:normal" d="M78.81 114.786l62.916 108.986-28.914.271-16.797-29.28-16.917 29.124-14.367-.005-7.358-12.712 24.102-41.443-17.11-29.773z" overflow="visible" id="path14" fill-rule="evenodd" fill="#5277c3" color="#000"/>
  <path style="fill:none;stroke:#4d4d4d;stroke-width:5.10645628;stroke-linecap:round;stroke-linejoin:round;stroke-miterlimit:4;stroke-dasharray:none;stroke-opacity:1" d="M 129.13316,110.96465 V 98.974938" id="minutehand"/>
  <path style="fill:none;stroke:#4d4d4d;stroke-width:5.10645628;stroke-linecap:round;stroke-linejoin:round;stroke-miterlimit:4;stroke-dasharray:none;stroke-opacity:1" d="m 134.99434,115.18952 -5.88208,-4.23069" id="hourhand"/>
</svg>